<?xml version="1.0" standalone="no"?>
<!DOCTYPE svg PUBLIC "-//W3C//DTD SVG 20010904//EN"
 "http://www.w3.org/TR/2001/REC-SVG-20010904/DTD/svg10.dtd">
<svg version="1.0" xmlns="http://www.w3.org/2000/svg"
 width="250.000000pt" height="250.000000pt" viewBox="0 0 250.000000 250.000000"
 preserveAspectRatio="xMidYMid meet">
<metadata>
Created by potrace 1.14, written by Peter Selinger 2001-2017
</metadata>
<g transform="translate(0.000000,250.000000) scale(0.100000,-0.100000)"
fill="#000000" stroke="none">
<path d="M151 2346 c-8 -9 -11 -87 -9 -267 l3 -254 268 -3 267 -2 -2 267 -3
268 -256 3 c-209 2 -258 0 -268 -12z m439 -256 l0 -180 -180 0 -180 0 0 180 0
180 180 0 180 0 0 -180z"/>
<path d="M301 2196 c-8 -9 -11 -48 -9 -117 l3 -104 118 -3 118 -3 -3 118 -3
118 -106 3 c-82 2 -109 -1 -118 -12z"/>
<path d="M752 2348 c-7 -7 -12 -39 -12 -73 0 -68 10 -85 52 -85 25 0 28 -3 28
-36 l0 -35 43 3 c38 3 42 6 45 31 4 37 -13 57 -49 57 -26 0 -29 4 -29 30 l0
30 69 0 70 0 3 -37 c3 -33 7 -38 31 -41 45 -5 57 13 57 82 0 35 -5 67 -12 74
-8 8 -56 12 -148 12 -92 0 -140 -4 -148 -12z"/>
<path d="M1127 2354 c-4 -4 -7 -25 -7 -46 0 -37 1 -38 35 -38 32 0 35 -2 35
-29 0 -26 -4 -30 -32 -33 -30 -3 -33 -6 -36 -40 l-3 -38 -75 0 -74 0 0 -75 0
-75 -69 0 -70 0 -3 38 c-3 32 -7 37 -31 40 -54 6 -57 -4 -57 -199 l0 -179 -29
0 c-27 0 -30 3 -33 38 l-3 37 -75 0 -75 0 -3 -37 -3 -38 -69 0 -69 0 -3 38 -3
37 -104 3 c-116 3 -134 -4 -129 -52 l3 -31 73 -3 72 -3 0 -29 c0 -25 -4 -29
-32 -32 -31 -3 -33 -6 -36 -45 l-3 -43 75 0 76 0 0 -30 c0 -26 -4 -30 -28 -30
-36 0 -52 -16 -52 -52 0 -24 -4 -28 -29 -28 -27 0 -30 3 -33 38 -3 32 -7 37
-31 40 -45 5 -57 -13 -57 -82 0 -35 5 -67 12 -74 16 -16 130 -16 146 0 7 7 12
25 12 40 0 28 0 28 65 28 l65 0 0 -29 c0 -26 -4 -30 -32 -33 -31 -3 -33 -6
-36 -45 l-3 -43 75 0 76 0 0 -105 0 -105 -70 0 -70 0 0 36 0 35 -42 -3 c-40
-3 -43 -5 -46 -36 l-3 -32 -63 0 c-71 0 -89 -12 -84 -57 3 -28 4 -28 75 -31
l73 -3 0 -29 0 -30 -64 0 c-71 0 -89 -12 -84 -57 l3 -28 80 0 80 0 3 32 c3 29
7 33 33 33 27 0 29 -3 29 -35 l0 -35 155 0 155 0 0 35 c0 32 3 35 28 35 36 0
52 16 52 52 0 24 4 28 29 28 27 0 30 -3 33 -38 3 -32 7 -37 31 -40 37 -4 57
13 57 49 0 25 4 29 29 29 27 0 30 -3 33 -38 l3 -37 72 -3 72 -3 3 -72 3 -72
73 -3 72 -3 0 -35 0 -35 43 3 c39 3 42 5 45 35 3 28 7 32 35 35 l32 3 0 80 0
80 -72 3 -73 3 0 29 c0 26 4 29 38 32 34 3 37 6 40 36 3 28 7 32 33 32 27 0
29 -3 29 -35 0 -33 2 -35 35 -35 32 0 35 -3 35 -29 0 -36 20 -53 57 -49 24 3
28 8 31 40 3 35 6 38 33 38 l29 0 0 -145 0 -145 -30 0 -30 0 0 76 0 75 -42 -3
-43 -3 -3 -147 -3 -148 -29 0 c-26 0 -29 3 -32 38 l-3 37 -75 0 -75 0 -3 -72
-3 -73 -69 0 -70 0 0 29 c0 27 3 30 38 33 l37 3 0 75 0 75 -42 3 -43 3 0 -35
0 -36 -105 0 -105 0 0 30 0 29 73 3 c71 3 72 3 75 31 4 37 -13 57 -49 57 -26
0 -29 3 -29 35 l0 36 -117 -3 -118 -3 -3 -28 c-4 -37 13 -57 49 -57 25 0 29
-4 29 -29 0 -27 -3 -30 -37 -33 -33 -3 -38 -7 -41 -31 -5 -45 13 -57 84 -57
l64 0 0 -30 c0 -28 -3 -30 -35 -30 -33 0 -35 -2 -35 -35 0 -32 -3 -35 -29 -35
-46 0 -52 -17 -49 -131 l3 -104 43 -3 42 -3 0 110 0 111 29 0 c26 0 30 -4 33
-32 3 -30 6 -33 40 -36 35 -3 37 -5 40 -40 l3 -37 73 -3 72 -3 0 -34 0 -35
156 0 155 0 -3 43 c-3 39 -5 42 -35 45 -29 3 -33 7 -33 33 0 27 3 29 35 29 33
0 35 2 35 35 0 32 3 35 28 35 36 0 52 16 52 52 0 24 4 28 29 28 27 0 30 -3 33
-38 l3 -37 73 -3 72 -3 0 -29 c0 -26 -4 -29 -37 -32 l-38 -3 0 -75 0 -75 43
-3 42 -3 0 75 0 75 38 3 37 3 3 73 3 72 64 0 65 0 0 -70 0 -70 -36 0 -35 0 3
-42 c3 -40 5 -43 35 -46 28 -3 32 -7 35 -35 l3 -32 80 0 80 0 0 75 0 75 -37 3
c-35 3 -38 6 -38 33 l0 29 70 0 70 0 0 -35 0 -35 80 0 81 0 -3 117 -3 118 -32
3 c-29 3 -33 7 -33 33 0 27 3 29 35 29 l35 0 0 80 0 80 -35 0 c-32 0 -35 3
-35 29 0 36 -20 53 -57 49 -24 -3 -28 -8 -31 -40 -3 -35 -6 -38 -33 -38 -25 0
-29 4 -29 28 0 36 -16 52 -52 52 -24 0 -28 4 -28 29 0 27 3 30 38 33 34 3 37
6 40 36 l3 32 64 0 64 0 3 -32 c3 -31 6 -33 46 -36 l43 -3 -3 118 -3 118 -28
3 c-36 4 -57 -13 -57 -49 0 -28 0 -28 -72 -31 l-73 -3 -3 -32 -3 -33 -64 0
-64 0 -3 32 c-3 30 -6 33 -40 36 -35 3 -38 6 -38 33 0 25 4 29 28 29 15 0 33
5 40 12 7 7 12 25 12 40 0 25 3 28 36 28 l35 0 -3 43 c-3 39 -5 42 -35 45
l-33 3 0 65 0 64 63 0 c70 0 87 10 87 52 0 25 3 28 35 28 33 0 35 2 35 35 0
32 2 35 29 35 26 0 30 -4 33 -32 3 -31 6 -33 46 -36 l43 -3 -3 118 -3 118 -75
0 -75 0 -3 -72 -3 -73 -104 0 -105 0 0 30 c0 28 3 30 36 30 l35 0 -3 43 -3 42
-182 3 -183 2 0 30 c0 28 3 30 36 30 l35 0 -3 43 c-3 38 -6 42 -31 45 -37 4
-57 -13 -57 -49 0 -25 -4 -29 -29 -29 -27 0 -30 3 -33 38 -3 34 -6 37 -35 40
-29 3 -33 7 -33 33 0 27 3 29 35 29 l35 0 0 80 0 80 -35 0 c-32 0 -35 2 -35
29 0 26 4 30 33 33 l32 3 0 80 0 80 -28 3 c-45 5 -57 -13 -57 -84 l0 -64 -30
0 c-28 0 -30 3 -30 36 l0 35 -42 -3 c-40 -3 -43 -5 -46 -35 -3 -29 -7 -33 -32
-33 l-29 0 -3 73 -3 72 -70 3 c-39 1 -74 0 -78 -4z m293 -194 c0 -27 -3 -30
-30 -30 -27 0 -30 3 -30 30 0 27 3 30 30 30 27 0 30 -3 30 -30z m-80 -68 c0
-36 16 -52 52 -52 24 0 28 -4 28 -29 0 -27 -3 -30 -37 -33 l-38 -3 -3 -72 -3
-73 -29 0 -29 0 -3 113 -3 112 -28 3 c-37 4 -57 -13 -57 -49 0 -26 -4 -29 -30
-29 l-30 0 0 70 0 70 105 0 105 0 0 -28z m-298 -194 l3 -73 38 -3 c33 -3 37
-6 37 -32 l0 -29 -72 -3 -73 -3 -3 -42 -3 -43 35 0 36 0 0 -70 0 -70 -29 0
c-27 0 -30 3 -33 38 l-3 37 -72 3 -73 3 0 29 c0 26 4 29 38 32 l37 3 3 73 3
72 34 0 35 0 0 75 0 75 30 0 29 0 3 -72z m-152 -38 c0 -27 -3 -30 -30 -30 -27
0 -30 3 -30 30 0 27 3 30 30 30 27 0 30 -3 30 -30z m300 0 c0 -27 -3 -30 -30
-30 -27 0 -30 3 -30 30 0 27 3 30 30 30 27 0 30 -3 30 -30z m300 -33 c0 -36 5
-68 12 -75 7 -7 39 -12 75 -12 l63 0 0 -30 c0 -28 -3 -30 -35 -30 l-35 0 0
-74 0 -75 -37 -3 c-33 -3 -38 -7 -41 -31 -4 -37 13 -57 49 -57 l28 0 3 -147 3
-148 33 -3 c28 -3 32 -7 32 -33 0 -27 -3 -29 -35 -29 l-35 0 0 -75 0 -75 -30
0 c-26 0 -30 4 -30 28 0 36 -16 52 -52 52 -25 0 -28 3 -28 35 0 33 -2 35 -35
35 l-35 0 0 70 0 69 73 3 c71 3 72 3 75 31 4 36 -13 57 -49 57 -28 0 -28 0
-31 73 l-3 72 -32 3 -33 3 0 65 0 64 64 0 c71 0 89 12 84 57 -3 24 -8 28 -40
31 l-38 3 0 105 0 104 30 0 30 0 0 -63z m-218 -44 c3 -35 6 -38 36 -41 28 -3
32 -7 32 -33 0 -27 -3 -29 -35 -29 -33 0 -35 -2 -35 -35 l0 -35 -70 0 -70 0 0
29 c0 27 3 30 38 33 l37 3 3 73 3 72 29 0 c26 0 29 -4 32 -37z m-602 -143 c0
-26 -4 -30 -28 -30 -36 0 -52 -16 -52 -52 0 -24 -4 -28 -30 -28 l-30 0 0 70 0
70 70 0 70 0 0 -30z m-230 -80 c0 -27 -3 -30 -30 -30 -27 0 -30 3 -30 30 0 27
3 30 30 30 27 0 30 -3 30 -30z m380 -5 c0 -33 2 -35 35 -35 32 0 35 -2 35 -30
l0 -30 -65 0 -65 0 0 65 0 65 30 0 c28 0 30 -3 30 -35z m970 5 c0 -28 -3 -30
-36 -30 l-35 0 3 -42 c3 -40 5 -43 36 -46 l32 -3 0 -65 0 -64 -30 0 c-28 0
-30 3 -30 35 0 33 -2 35 -35 35 l-35 0 0 105 0 105 65 0 65 0 0 -30z m-1120
-70 c0 -27 -3 -30 -30 -30 -27 0 -30 3 -30 30 0 27 3 30 30 30 27 0 30 -3 30
-30z m520 0 c0 -27 -3 -30 -30 -30 -27 0 -30 3 -30 30 0 27 3 30 30 30 27 0
30 -3 30 -30z m750 0 l0 -30 -65 0 -65 0 0 30 0 30 65 0 65 0 0 -30z m-1420
-80 c0 -27 -3 -30 -30 -30 -27 0 -30 3 -30 30 0 27 3 30 30 30 27 0 30 -3 30
-30z m222 -2 l3 -33 73 -3 72 -3 0 -29 c0 -25 -4 -29 -32 -32 l-33 -3 -3 -72
c-3 -72 -3 -73 -30 -73 -36 0 -52 -17 -52 -52 0 -24 -4 -28 -29 -28 -27 0 -30
3 -33 38 -3 34 -6 37 -35 40 -29 3 -33 7 -33 32 l0 29 73 3 c71 3 72 3 75 31
5 45 -13 57 -84 57 l-64 0 0 30 c0 28 3 30 35 30 33 0 35 2 35 35 0 32 2 35
29 35 26 0 30 -4 33 -32z m380 -40 l3 -73 73 -3 72 -3 0 -139 0 -140 -70 0
-70 0 0 29 c0 27 3 30 38 33 l37 3 0 75 0 75 -42 3 -43 3 0 -35 0 -36 -70 0
-70 0 0 29 c0 27 3 30 38 33 32 3 37 7 40 31 4 37 -13 57 -49 57 -29 0 -29 0
-29 65 l0 65 70 0 69 0 3 -72z m218 42 c0 -27 -3 -30 -30 -30 -27 0 -30 3 -30
30 0 27 3 30 30 30 27 0 30 -3 30 -30z m-750 -150 c0 -27 -3 -30 -30 -30 -27
0 -30 3 -30 30 0 27 3 30 30 30 27 0 30 -3 30 -30z m380 0 c0 -27 -3 -30 -30
-30 -27 0 -30 3 -30 30 0 27 3 30 30 30 27 0 30 -3 30 -30z m750 0 c0 -27 -3
-30 -30 -30 -27 0 -30 3 -30 30 0 27 3 30 30 30 27 0 30 -3 30 -30z m70 -70
c0 -27 -3 -30 -30 -30 -27 0 -30 3 -30 30 0 27 3 30 30 30 27 0 30 -3 30 -30z
m-820 -85 c0 -33 2 -35 35 -35 l35 0 0 -70 0 -70 -29 0 c-27 0 -30 3 -33 38
-3 32 -7 37 -31 40 -37 4 -57 -13 -57 -49 0 -26 -4 -29 -30 -29 l-30 0 0 69 0
70 38 3 c34 3 37 6 40 36 3 28 7 32 33 32 27 0 29 -3 29 -35z m-300 -65 c0
-27 -3 -30 -30 -30 -27 0 -30 3 -30 30 0 27 3 30 30 30 27 0 30 -3 30 -30z
m1120 2 c0 -42 17 -52 87 -52 l63 0 0 -65 0 -65 -30 0 c-28 0 -30 3 -30 36 l0
35 -42 -3 c-40 -3 -43 -5 -46 -35 -3 -29 -7 -33 -33 -33 -27 0 -29 3 -29 35 0
33 -2 35 -35 35 l-35 0 0 70 0 70 65 0 c65 0 65 0 65 -28z m-1420 -82 c0 -27
-3 -30 -30 -30 -27 0 -30 3 -30 30 0 27 3 30 30 30 27 0 30 -3 30 -30z m370 0
c0 -27 -3 -30 -30 -30 -27 0 -30 3 -30 30 0 27 3 30 30 30 27 0 30 -3 30 -30z
m-300 -70 c0 -27 -3 -30 -30 -30 -27 0 -30 3 -30 30 0 27 3 30 30 30 27 0 30
-3 30 -30z m230 0 l0 -30 -70 0 -70 0 0 30 0 30 70 0 70 0 0 -30z m520 0 c0
-27 -3 -30 -30 -30 -27 0 -30 3 -30 30 0 27 3 30 30 30 27 0 30 -3 30 -30z
m750 -225 l0 -105 -105 0 -105 0 0 105 0 105 105 0 105 0 0 -105z m300 35 l0
-70 -36 0 -35 0 3 -42 c3 -40 5 -43 36 -46 l32 -3 0 -65 0 -64 -30 0 c-28 0
-30 3 -30 35 0 33 -2 35 -35 35 -32 0 -35 3 -35 28 0 36 -16 52 -52 52 -28 0
-28 1 -28 65 l0 64 73 3 72 3 3 38 c3 34 6 37 33 37 l29 0 0 -70z m-1200 -300
l0 -70 -29 0 c-27 0 -30 3 -33 38 -3 34 -6 37 -35 40 -29 3 -33 7 -33 33 l0
29 65 0 65 0 0 -70z m150 -110 c0 -27 -3 -30 -30 -30 -27 0 -30 3 -30 30 0 27
3 30 30 30 27 0 30 -3 30 -30z"/>
<path d="M1801 696 c-7 -8 -11 -27 -9 -43 3 -25 7 -28 46 -31 l43 -3 -3 43
c-3 40 -5 43 -34 46 -18 2 -36 -3 -43 -12z"/>
<path d="M1651 2346 c-7 -8 -11 -27 -9 -43 3 -25 7 -28 46 -31 l43 -3 -3 43
c-3 40 -5 43 -34 46 -18 2 -36 -3 -43 -12z"/>
<path d="M1801 2346 c-8 -9 -11 -87 -9 -267 l3 -254 268 -3 267 -2 -2 267 -3
268 -256 3 c-209 2 -258 0 -268 -12z m439 -256 l0 -180 -180 0 -180 0 0 180 0
180 180 0 180 0 0 -180z"/>
<path d="M1951 2196 c-8 -9 -11 -48 -9 -117 l3 -104 118 -3 118 -3 -3 118 -3
118 -106 3 c-82 2 -109 -1 -118 -12z"/>
<path d="M1652 2198 c-7 -7 -12 -38 -12 -74 0 -69 12 -87 57 -82 l28 3 0 80 0
80 -30 3 c-17 2 -36 -3 -43 -10z"/>
<path d="M2252 1448 c-6 -6 -12 -25 -12 -40 0 -25 -3 -28 -36 -28 l-35 0 3
-42 c3 -40 5 -43 35 -46 28 -3 32 -7 35 -35 3 -30 6 -32 46 -35 l43 -3 -3 118
-3 118 -30 3 c-17 2 -36 -3 -43 -10z"/>
<path d="M222 1188 c3 -40 5 -43 34 -46 37 -4 57 16 52 55 -3 25 -7 28 -46 31
l-43 3 3 -43z"/>
<path d="M151 696 c-8 -9 -11 -87 -9 -267 l3 -254 268 -3 267 -2 -2 267 -3
268 -256 3 c-209 2 -258 0 -268 -12z m439 -256 l0 -180 -180 0 -180 0 0 180 0
180 180 0 180 0 0 -180z"/>
<path d="M301 546 c-8 -9 -11 -48 -9 -117 l3 -104 118 -3 118 -3 -3 118 -3
118 -106 3 c-82 2 -109 -1 -118 -12z"/>
<path d="M1497 323 c-12 -12 -7 -60 7 -72 8 -7 27 -11 43 -9 25 3 28 7 31 46
l3 42 -39 0 c-21 0 -42 -3 -45 -7z"/>
<path d="M2251 246 c-7 -8 -11 -27 -9 -43 3 -25 7 -28 46 -31 l43 -3 -3 43
c-3 40 -5 43 -34 46 -18 2 -36 -3 -43 -12z"/>
</g>
</svg>
